DataType=double
version=3
OpenSimVersion=4.4-2022-07-23-0e9fedc
endheader
time	hip_flexion_l	hip_adduction_l	hip_rotation_l	knee_angle_l	ankle_angle_l	subtalar_angle_l
1.51142857	-32.28524565	-7.09401626	2.97047936	27.67172416	-0.6235699	-1.02305387
1.523	-28.52419973	-6.67450141	2.83398154	26.15275832	-0.61719773	-1.01511966
1.53457143	-26.0532822	-6.08214846	2.65215427	24.76569475	-0.30076134	-0.9430058
1.54614286	-25.99507483	-5.42907446	2.45120629	23.62627122	0.33933222	-0.73678518
1.55771429	-28.40128786	-4.75759849	2.24056339	22.3654728	1.18266868	-0.28679394
1.56928571	-32.26508964	-4.14008892	2.04421447	20.13374749	2.00473463	0.53311517
1.58085714	-35.56287585	-3.79878372	1.9511738	15.75134202	2.43669378	1.85632766
1.59242857	-37.43134638	-4.13540264	2.09295508	8.7472487	2.03625739	3.7129537
1.604	-38.11567612	-5.67449752	2.64766223	-0.383432	0.4493232	5.98008015
1.61557143	-37.63482292	-9.02388442	3.85154021	-11.14336678	-2.23168196	8.458864670000001
1.62714286	-36.09745073	-14.1565984	5.75006867	-22.76180038	-5.60289187	10.90181839
1.63871429	-34.05603995	-19.99890853	7.94493572	-34.0763107	-9.171602740000001	13.07769283
1.65028571	-31.77728916	-25.86137361	10.1879389	-44.56468061	-12.69208268	14.99634871
1.66185714	-29.53196901	-31.16938441	12.18683115	-53.74574398	-16.02275703	16.66379489
1.67342857	-27.35548235	-35.78774483	13.90410012	-61.32325195	-19.18849032	18.16069099
1.685	-25.22753665	-39.63225747	15.24951467	-66.93663347	-22.20224065	19.47300984
1.69657143	-23.05612649	-43.05072341	16.35804153	-70.57616976	-25.18585168	20.67255564
1.70814286	-20.72525316	-46.21066418	17.26348551	-72.40113466	-28.15893918	21.81130408
1.71971429	-18.24952008	-49.20988677	17.98232237	-72.49170624999999	-31.30992399	22.86322774
1.73128571	-15.73140459	-52.08474715	18.51827234	-71.15211985000001	-34.6097358	23.83219789
1.74285714	-13.27486375	-54.72476209	18.82843334	-68.69447974000001	-37.97529247	24.69294107
1.75442857	-11.10528255	-56.98194907	18.88142091	-65.40248596000001	-41.24300934	25.43560968
1.766	-9.377742080000001	-58.56433368	18.59690244	-61.51380398	-44.34255161	26.00824053
1.77757143	-8.16479987	-59.40008197	18.02233992	-57.27771027	-47.15272222	26.43806047
1.78914286	-7.41448205	-59.45792077	17.21222956	-52.89181575	-49.60055513	26.75299513
1.80071429	-6.97313867	-58.99746516	16.2924106	-48.5750768	-51.71682979	26.9435499
1.81228571	-6.62778705	-58.15349624	15.33207605	-44.522346	-53.47605435	27.0478885
1.82385714	-6.24269454	-57.09870449	14.39351485	-40.88636497	-54.90839877	27.09497704
1.83542857	-5.66224128	-55.90499025	13.50775982	-37.81085514	-56.03264456	27.13444471
1.847	-4.8965022	-54.68202975	12.68788729	-35.30927345	-57.02473293	27.17880894
1.85857143	-3.9365942	-53.48494129	11.96029167	-33.37474028	-57.98036285	27.26819694
1.87014286	-2.75307939	-52.33184993	11.3410502	-32.01227392	-58.93651471	27.43325083
1.88171429	-1.46268364	-51.35071923	10.85196822	-31.08942927	-60.05162574	27.65714763
1.89328571	-0.07807213	-50.51127083	10.48825328	-30.55558123	-61.28870075	27.95152108
1.90485714	1.36859222	-49.82852699	10.24681507	-30.31619881	-62.64186823	28.30636806
1.91642857	2.85367968	-49.25685644	10.10509035	-30.27894924	-64.04880898	28.70631435
1.928	4.32370736	-48.8141584	10.02278907	-30.26160002	-65.53763725	29.08287314
1.93957143	5.84683059	-48.51013938	9.97479804	-30.22338868	-66.99232044	29.3993744
1.95114286	7.47629348	-48.35753475	9.92809993	-30.13689484	-68.26429782	29.60886223
1.96271429	9.200530820000001	-48.36394746	9.84008165	-29.8966248	-69.30947547	29.64016837
1.97428571	11.03292966	-48.44550467	9.671617380000001	-29.52555368	-69.94532830999999	29.46182587
1.98585714	12.92809122	-48.55352661	9.404343949999999	-29.03823496	-70.05723131000001	29.049751
1.99742857	14.86251072	-48.5829114	9.028502939999999	-28.52825993	-69.49514101	28.40992081
2.009	16.69054919	-48.48728446	8.54460868	-27.95290996	-68.42143762000001	27.56238296
2.02057143	18.38321395	-48.19501701	7.97843578	-27.41302171	-66.89785361	26.57660849
2.03214286	19.94430994	-47.71178588	7.38383214	-27.00784581	-65.07756286	25.54896686
2.04371429	21.33117374	-47.0756705	6.81668626	-26.68461528	-63.39734693	24.59983549
2.05528571	22.6179424	-46.4207721	6.35831748	-26.49723044	-62.12455085	23.843129
2.06685714	23.88535757	-45.90748015	6.07604481	-26.43866975	-61.57421863	23.36712694
2.07842857	25.25481208	-45.65780556	6.01344531	-26.50743827	-61.96077935	23.22549589
2.09	26.85729241	-45.73669193	6.15283166	-26.62970592	-63.50233466	23.39270741
2.10157143	28.8574429	-46.05220692	6.45550265	-26.80834338	-66.14095163	23.81397568
2.11314286	31.38553613	-46.45581885	6.85754338	-27.04434448	-69.71771866	24.39988898
2.12471429	34.4333206	-46.64030733	7.2678283	-27.25371728	-74.01355624999999	25.01156563
2.13628571	37.91981562	-46.32650611	7.61952414	-27.42808153	-78.63717158999999	25.53921646
2.14785714	41.6465873	-45.18234772	7.8477457	-27.52223595	-83.15673518	25.87008646
2.15942857	45.32567516	-42.88587212	7.89169726	-27.50377115	-87.04876541	25.91072726
2.171	48.52615575	-39.17175829	7.68209758	-27.27236032	-89.83590905	25.56273379
2.18257143	50.87462312	-33.96479897	7.17867879	-26.79512148	-90.95881645	24.77901537
2.19414286	52.01440472	-27.41133488	6.3490699	-25.9944373	-89.9175395	23.52754144
2.20571429	51.76335437	-20.01344445	5.20142277	-24.82730502	-86.53149156000001	21.8388354
2.21728571	50.07114591	-12.43288373	3.79120546	-23.23958792	-80.73447414	19.78422536
2.22885714	47.06980985	-5.49906744	2.23639113	-21.22982087	-72.73212731	17.46751122
2.24042857	43.07304009	0.04160869	0.69209906	-18.80210749	-62.88957446	14.98189588
2.252	38.8206116	3.63747974	-0.68629155	-16.22860319	-52.02202239	12.48368788
2.26357143	34.91409445	5.16720378	-1.80408988	-13.68798583	-40.81330541	10.04545361
2.27514286	31.83977561	4.90045336	-2.64158059	-11.4011706	-29.94567275	7.73023036
2.28671429	29.85205564	3.50103377	-3.25910283	-9.64315448	-20.33561203	5.66978973
2.29828571	28.72226539	1.53651002	-3.71466661	-8.47979617	-12.35268241	3.89977137
2.30985714	28.149059	-0.45743842	-4.0626613	-7.92551248	-6.23256061	2.46717847
2.32142857	27.78175103	-2.18245446	-4.3401833	-7.89558979	-1.91576364	1.37512009
2.333	27.30988308	-3.57538321	-4.49800233	-8.2665966	0.68739574	0.63452838
2.34457143	26.61592799	-4.6890193	-4.50059093	-8.87466219	1.98510262	0.18824554
2.35614286	25.75039547	-5.54361331	-4.33192631	-9.56085133	2.3574635	-0.02663903
2.36771429	24.70178642	-6.22563547	-3.97210837	-10.13088482	2.18860442	-0.08952785000000001
2.37928571	23.49116368	-6.75039314	-3.43921336	-10.39521665	1.75299844	-0.06833582000000001
2.39085714	22.11271279	-7.12950474	-2.78581237	-10.23449045	1.2767403	-0.01397913
2.40242857	20.58334696	-7.38209522	-2.0521581	-9.597790079999999	0.84466623	0.03824178
2.414	18.95271421	-7.49946834	-1.3097117	-8.52803022	0.54698313	0.07104212
2.42557143	17.26785586	-7.47311924	-0.60575336	-7.09195355	0.35355709	0.07601006
2.43714286	15.60133138	-7.2860847	-0.00100926	-5.41870464	0.27022771	0.05768118
2.44871429	14.04994334	-6.95260167	0.48300478	-3.64255269	0.25771353	0.01930864
2.46028571	12.6639462	-6.50023526	0.81443531	-1.88566616	0.31404385	-0.02755715
2.47185714	11.50827613	-5.94818133	0.97647246	-0.24556263	0.40163352	-0.06976029
2.48342857	10.57589285	-5.3215541	0.94808337	1.22128631	0.53559752	-0.09966667999999999
2.495	9.79136652	-4.62828285	0.73595341	2.52859468	0.68035752	-0.11021017
2.50657143	8.98140798	-3.91191	0.38012772	3.73495416	0.8466667	-0.11078747
2.51814286	7.85954389	-3.21182897	-0.05157158	4.98065971	0.98181803	-0.10771536
2.52971429	6.08488872	-2.59433928	-0.49076606	6.40756323	1.09411064	-0.11181457
2.54128571	3.32682694	-2.1447705	-0.84614504	8.15540528	1.16267685	-0.12904767
2.55285714	-0.686492	-1.99720516	-1.01583368	10.32688047	1.19873056	-0.17185962
2.56442857	-5.96083114	-2.27062901	-0.91818014	12.91876181	1.18743582	-0.23949684
2.576	-12.21218755	-3.0378584	-0.52631605	15.81500843	1.14373833	-0.33496948
2.58757143	-18.87773352	-4.31359005	0.14925322	18.8211474	1.02776307	-0.44944607
2.59914286	-25.14517662	-5.90398883	0.99907625	21.64124595	0.85454876	-0.57096657
2.61071429	-30.16751861	-7.4093848	1.85722385	23.98950212	0.61288531	-0.6808219
2.62228571	-33.24651986	-8.37912803	2.56653418	25.63683743	0.32796671	-0.76984957
2.63385714	-34.00427672	-8.48679241	3.03978447	26.46512716	0.01370124	-0.82524451
2.64542857	-32.5324539	-7.65126305	3.25894093	26.50378205	-0.27975592	-0.84358101
2.657	-29.40535489	-6.10734826	3.27234679	25.90576816	-0.50499327	-0.82606829
2.66857143	-25.61560715	-4.32802492	3.16365011	24.89228164	-0.5594710899999999	-0.77366307
